<svg xmlns="http://www.w3.org/2000/svg" xmlns:xlink="http://www.w3.org/1999/xlink" fill="none" version="1.1" width="25" height="25" viewBox="0 0 25 25"><defs><clipPath id="master_svg0_21_46473"><rect x="0" y="0" width="25" height="25" rx="0"/></clipPath></defs><g clip-path="url(#master_svg0_21_46473)"><g><path d="M18.75,8.333418046875L20.8333,8.333418046875C21.4086,8.333418046875,21.875,8.799788046875001,21.875,9.375078046875L21.875,21.875048046875C21.875,22.450348046875,21.4086,22.916748046875,20.8333,22.916748046875L4.16667,22.916748046875C3.59137,22.916748046875,3.125,22.450348046875,3.125,21.875048046875L3.125,9.375078046875C3.125,8.799788046875001,3.59137,8.333418046875,4.16667,8.333418046875L6.25,8.333418046875L6.25,7.291748046875C6.25,3.839968046875,9.04822,1.041748046875,12.5,1.041748046875C15.9518,1.041748046875,18.75,3.839968046875,18.75,7.291748046875L18.75,8.333418046875ZM11.45833,16.387548046875L11.45833,18.750048046875L13.5417,18.750048046875L13.5417,16.387548046875C14.6634,15.739948046875,14.9285,14.236448046875,14.0959,13.244248046875C13.2633,12.251948046875,11.73668,12.251948046875,10.90407,13.244248046875C10.07147,14.236448046875,10.33657,15.739948046875,11.45833,16.387548046875ZM16.6667,8.333418046875L16.6667,7.291748046875C16.6667,4.990558046875,14.8012,3.125078046875,12.5,3.125078046875C10.19881,3.125078046875,8.33333,4.990558046875,8.33333,7.291748046875L8.33333,8.333418046875L16.6667,8.333418046875Z" fill="#C8C8C8" fill-opacity="1" style="mix-blend-mode:passthrough"/></g></g></svg>